<?xml version="1.0" standalone="no"?>
<!DOCTYPE svg PUBLIC "-//W3C//DTD SVG 20010904//EN"
 "http://www.w3.org/TR/2001/REC-SVG-20010904/DTD/svg10.dtd">
<svg version="1.0" xmlns="http://www.w3.org/2000/svg"
 width="825.000000pt" height="825.000000pt" viewBox="0 0 825.000000 825.000000"
 preserveAspectRatio="xMidYMid meet">
<metadata>
Created by potrace 1.11, written by Peter Selinger 2001-2013
</metadata>
<g transform="translate(0.000000,825.000000) scale(0.100000,-0.100000)"
fill="#000000" stroke="none">
<path d="M2491 6698 c2 -101 6 -190 11 -199 4 -10 76 -84 159 -165 83 -82 166
-165 185 -184 l33 -34 -192 -189 -192 -189 0 -192 0 -191 285 -286 285 -285
510 1 c281 0 517 -2 525 -6 8 -4 76 -69 150 -144 365 -370 422 -425 438 -426
9 -1 117 -2 238 -2 l222 -2 0 235 c1 129 1 260 1 290 l1 55 90 -95 c50 -52
141 -149 203 -214 61 -66 144 -152 182 -193 l70 -73 205 -1 c113 0 225 0 251
0 l45 1 -2 368 c-1 202 -3 545 -3 762 l-1 396 -283 285 -284 286 -235 0 -235
0 -1 -251 c0 -138 -1 -263 -1 -278 -1 -23 -80 53 -564 538 l-563 564 -767 0
-768 0 2 -182z"/>
<path d="M6209 6673 c0 -10 -2 -25 -4 -33 -11 -51 -35 -298 -51 -510 -3 -47
-8 -88 -10 -92 -10 -16 59 -73 186 -154 128 -81 303 -205 325 -230 6 -6 21
-19 35 -28 46 -30 170 -158 170 -175 0 -9 -4 -52 -10 -96 -5 -44 -12 -111 -15
-150 -4 -38 -8 -83 -10 -100 -2 -16 -6 -70 -10 -120 -4 -49 -9 -103 -11 -120
-2 -16 -6 -66 -9 -110 -4 -44 -8 -90 -10 -103 -2 -12 -7 -62 -10 -110 -4 -48
-8 -98 -10 -111 -3 -14 -7 -72 -10 -130 -7 -128 -3 -137 75 -145 50 -5 86 -10
145 -21 40 -7 92 -17 165 -31 41 -7 89 -16 105 -19 17 -2 54 -9 84 -15 29 -5
55 -10 56 -10 7 0 21 121 41 350 4 41 8 86 9 100 2 14 6 57 9 95 4 39 11 115
16 170 6 55 12 125 14 155 7 87 17 193 21 220 2 14 7 59 10 100 3 41 8 98 11
125 22 234 24 317 8 351 -21 43 -231 254 -385 388 -64 56 -275 209 -414 301
-128 85 -476 275 -503 275 -7 0 -12 -8 -13 -17z"/>
<path d="M2130 6564 c-203 -106 -251 -134 -415 -248 -176 -122 -274 -196 -375
-286 -105 -92 -276 -263 -312 -310 -35 -46 -36 -83 -13 -320 2 -19 7 -73 10
-120 4 -47 8 -96 10 -110 2 -14 7 -56 10 -95 3 -38 7 -86 10 -105 2 -19 7 -73
11 -120 3 -47 8 -93 9 -102 2 -9 7 -57 10 -105 4 -48 8 -99 10 -113 2 -14 6
-56 10 -95 3 -38 8 -88 10 -110 2 -22 7 -66 10 -97 11 -117 17 -173 18 -174 1
-1 108 18 237 42 129 24 257 46 284 49 67 9 84 13 97 21 9 5 10 45 6 138 -4
72 -9 140 -11 151 -2 11 -7 61 -10 110 -4 50 -9 109 -12 133 -8 77 -12 126
-19 202 -4 41 -8 91 -10 110 -2 19 -7 76 -10 125 -4 50 -9 98 -10 107 -7 34
-19 154 -18 177 2 51 200 217 488 409 105 69 195 133 201 141 12 15 11 44 0
181 -4 41 -9 102 -12 135 -7 84 -13 154 -19 195 -3 19 -7 56 -10 81 -10 99 0
99 -185 3z"/>
<path d="M3787 4074 c-1 -1 -117 -4 -257 -8 -140 -3 -280 -8 -310 -11 -30 -2
-109 -6 -175 -10 -66 -3 -145 -7 -175 -10 -30 -2 -100 -7 -155 -10 -55 -4
-127 -8 -160 -11 -33 -2 -91 -6 -130 -9 -128 -9 -210 -15 -250 -20 -22 -2 -78
-7 -125 -10 -47 -3 -96 -7 -110 -10 -14 -2 -56 -7 -95 -10 -38 -3 -92 -8 -120
-10 -27 -3 -72 -8 -100 -10 -27 -3 -68 -7 -90 -10 -22 -2 -67 -7 -100 -10 -84
-8 -215 -24 -244 -31 -32 -7 -36 15 84 -419 102 -368 185 -649 193 -657 5 -5
108 4 238 21 126 16 279 35 339 41 61 6 126 13 145 15 19 2 67 7 105 10 39 3
88 8 110 10 89 10 380 36 440 40 63 4 272 16 355 20 490 25 1683 25 2050 1 25
-2 95 -7 155 -11 61 -3 126 -8 147 -10 20 -2 78 -7 130 -10 51 -3 118 -7 148
-10 30 -3 82 -7 115 -10 235 -19 218 -17 335 -29 36 -4 110 -11 165 -17 92 -9
123 -13 210 -23 17 -3 59 -7 95 -11 36 -3 72 -8 80 -10 21 -5 156 -18 205 -19
l40 -1 51 180 c29 99 84 295 124 435 134 478 133 469 82 471 -45 2 -83 6 -182
18 -133 17 -156 19 -235 27 -38 3 -83 8 -100 10 -16 2 -64 6 -105 9 -41 3 -91
8 -110 10 -19 2 -66 7 -105 10 -38 4 -88 8 -110 10 -22 2 -76 7 -120 10 -44 3
-102 8 -130 10 -27 2 -95 7 -150 10 -55 3 -129 8 -165 10 -36 3 -110 7 -165
10 -148 8 -292 16 -360 20 -166 11 -491 17 -973 19 -294 0 -534 0 -535 0z"/>
<path d="M1080 3823 c-14 -27 -40 -75 -59 -108 -19 -33 -93 -166 -166 -295
-73 -129 -142 -253 -155 -275 -13 -22 -34 -60 -48 -85 -14 -25 -34 -61 -45
-80 -11 -19 -36 -64 -55 -100 -19 -36 -70 -127 -113 -204 -44 -76 -79 -142
-79 -146 0 -4 -7 -13 -15 -20 -8 -7 -15 -17 -15 -22 0 -11 13 -9 105 17 33 9
67 18 75 20 8 2 103 29 210 60 107 31 202 58 210 60 39 8 107 27 120 32 15 6
28 10 53 16 6 2 39 11 72 21 33 10 67 19 75 21 8 2 42 11 75 21 33 10 64 17
68 16 16 -4 17 26 3 79 -82 300 -209 735 -217 737 -5 2 -7 8 -3 13 3 5 -7 51
-21 102 -15 50 -28 97 -30 102 -1 6 -5 17 -8 25 -3 8 -7 21 -9 28 -2 6 -14 -9
-28 -35z"/>
<path d="M7407 3769 c-21 -68 -41 -140 -52 -179 -1 -3 -7 -23 -13 -45 -7 -22
-37 -128 -68 -235 -30 -107 -64 -224 -75 -260 -10 -36 -32 -110 -47 -165 l-29
-100 26 -6 c26 -7 230 -66 326 -94 28 -8 60 -17 73 -20 12 -2 27 -7 32 -10 5
-3 18 -8 27 -10 38 -8 204 -55 390 -111 29 -9 58 -17 65 -18 7 -1 39 -10 72
-20 32 -9 59 -16 61 -14 1 2 -34 68 -79 148 -45 80 -95 170 -111 200 -16 30
-57 105 -91 165 -33 61 -73 131 -87 157 -15 26 -46 83 -70 125 -24 43 -61 110
-81 148 -21 39 -43 75 -50 80 -6 6 -12 16 -14 24 -3 15 -159 299 -173 315 -4
4 -18 -29 -32 -75z"/>
<path d="M2377 2704 c-1 -1 -79 -4 -174 -8 -94 -4 -189 -9 -210 -11 -61 -6
-179 -15 -283 -21 -165 -9 -180 -16 -123 -61 45 -36 333 -228 453 -303 653
-408 1379 -736 1860 -841 90 -19 136 -23 315 -23 194 -1 310 5 374 20 56 13
230 64 311 90 47 15 90 29 95 30 13 3 144 51 170 63 11 5 63 26 115 47 278
109 683 310 1010 502 80 47 154 90 165 96 63 37 119 73 290 188 207 139 242
164 235 172 -3 2 -50 7 -105 11 -55 3 -120 8 -145 10 -25 2 -94 6 -155 10 -60
4 -121 8 -135 10 -23 3 -172 11 -369 20 l-75 3 -105 -62 c-157 -92 -181 -106
-241 -139 -30 -16 -73 -40 -95 -52 -43 -25 -387 -198 -395 -200 -3 -1 -41 -18
-84 -38 -43 -20 -81 -37 -83 -37 -3 0 -34 -13 -69 -30 -99 -46 -315 -125 -424
-155 -3 -1 -36 -11 -75 -23 -114 -35 -207 -34 -365 4 -62 15 -208 61 -260 82
-14 5 -45 18 -70 27 -186 72 -447 195 -670 315 -194 104 -189 102 -343 193
-71 43 -132 77 -135 77 -3 0 -14 8 -25 18 -15 13 -37 17 -99 17 -44 0 -80 0
-81 -1z"/>
</g>
</svg>
