<?xml version="1.0" standalone="no"?>
<!DOCTYPE svg PUBLIC "-//W3C//DTD SVG 20010904//EN"
 "http://www.w3.org/TR/2001/REC-SVG-20010904/DTD/svg10.dtd">
<svg version="1.0" xmlns="http://www.w3.org/2000/svg"
 width="429.000000pt" height="429.000000pt" viewBox="0 0 429.000000 429.000000"
 preserveAspectRatio="xMidYMid meet">
<metadata>
Created by potrace 1.11, written by Peter Selinger 2001-2013
</metadata>
<g transform="translate(0.000000,429.000000) scale(0.100000,-0.100000)"
fill="#000000" stroke="none">
<path d="M0 2145 l0 -2145 2145 0 2145 0 0 2145 0 2145 -2145 0 -2145 0 0
-2145z m1936 733 l-7 -122 -234 -240 -233 -241 234 -3 234 -2 0 -120 0 -120
-480 0 -480 0 0 120 0 120 -123 0 -122 0 -239 239 c-184 184 -234 240 -221
245 9 3 170 6 358 6 l342 0 125 -125 125 -125 117 117 c65 65 118 121 118 125
0 5 -108 8 -240 8 l-240 0 0 98 c0 53 -3 107 -6 120 l-6 22 492 0 493 0 -7
-122z m1014 -723 l0 -485 -150 0 -150 0 0 180 0 180 -175 0 -175 0 0 -180 0
-180 -155 0 -155 0 0 480 0 480 155 0 155 0 2 -177 3 -178 175 0 175 0 3 183
2 182 145 0 145 0 0 -485z m855 -365 l240 -240 -363 0 -362 0 0 240 0 240 123
0 122 0 240 -240z m-1090 -190 l49 -50 -52 0 -52 0 0 50 c0 28 1 50 3 50 1 0
25 -22 52 -50z"/>
</g>
</svg>
